<svg xmlns="http://www.w3.org/2000/svg" width="199" height="199" viewBox="0 0 199 199"><rect width="100%" height="100%" fill="#DDDDDD"/><path fill="#999999" d="M48.4 106.87h3.51v2.5h-10.8v-2.5h3.96V95.49q0-.67.04-1.39l-2.81 2.35q-.24.19-.48.24-.24.04-.45 0-.2-.04-.37-.14-.16-.1-.24-.22l-1.05-1.45 5.95-5.06h2.74v17.05Zm9.65-11.16q0 1.63.85 2.49.84.86 2.39.86.81 0 1.45-.26.63-.26 1.07-.7.43-.45.65-1.06.22-.6.22-1.3 0-.8-.24-1.43-.24-.63-.69-1.06-.44-.43-1.06-.66-.61-.23-1.34-.23-.76 0-1.37.25-.6.25-1.03.69-.44.45-.67 1.06-.23.62-.23 1.35Zm-1.63 13.66 6.06-7.57q.23-.29.43-.56.21-.27.4-.54-.68.44-1.49.66-.81.22-1.7.22-1.01 0-1.98-.35-.98-.35-1.73-1.06-.76-.71-1.22-1.76-.47-1.04-.47-2.45 0-1.3.49-2.45.48-1.15 1.36-2.01.88-.87 2.11-1.37 1.22-.5 2.71-.5 1.5 0 2.69.48 1.2.47 2.04 1.32.84.85 1.3 2.04.45 1.19.45 2.6 0 .91-.16 1.72-.15.81-.44 1.56-.28.75-.68 1.46-.41.72-.91 1.42l-4.47 6.37q-.23.32-.69.55-.45.22-1.03.22h-3.07Zm17.29-13.66q0 1.63.85 2.49.84.86 2.39.86.81 0 1.45-.26.63-.26 1.07-.7.43-.45.65-1.06.22-.6.22-1.3 0-.8-.24-1.43-.24-.63-.69-1.06-.44-.43-1.06-.66-.61-.23-1.34-.23-.76 0-1.37.25-.6.25-1.03.69-.44.45-.67 1.06-.23.62-.23 1.35Zm-1.63 13.66 6.06-7.57q.23-.29.43-.56.21-.27.4-.54-.68.44-1.49.66-.81.22-1.7.22-1.01 0-1.99-.35-.97-.35-1.72-1.06-.76-.71-1.22-1.76-.47-1.04-.47-2.45 0-1.3.49-2.45.48-1.15 1.36-2.01.88-.87 2.11-1.37 1.22-.5 2.71-.5 1.5 0 2.69.48 1.2.47 2.04 1.32.84.85 1.3 2.04.45 1.19.45 2.6 0 .91-.16 1.72-.15.81-.44 1.56-.28.75-.68 1.46-.41.72-.91 1.42l-4.47 6.37q-.23.32-.69.55-.45.22-1.03.22h-3.07Zm33.6-4.47-1.77 1.74-4.57-4.57-4.62 4.6-1.77-1.74 4.62-4.63-4.4-4.4 1.75-1.76 4.4 4.4 4.38-4.37 1.78 1.75-4.39 4.39 4.59 4.59Zm18.48 1.97h3.51v2.5h-10.8v-2.5h3.96V95.49q0-.67.04-1.39l-2.81 2.35q-.24.19-.48.24-.23.04-.44 0t-.37-.14q-.17-.1-.25-.22l-1.05-1.45 5.95-5.06h2.74v17.05Zm9.66-11.16q0 1.63.84 2.49.84.86 2.4.86.81 0 1.44-.26.64-.26 1.07-.7.43-.45.65-1.06.22-.6.22-1.3 0-.8-.24-1.43-.24-.63-.69-1.06-.44-.43-1.06-.66-.61-.23-1.34-.23-.76 0-1.36.25-.61.25-1.04.69-.43.45-.66 1.06-.23.62-.23 1.35Zm-1.64 13.66 6.06-7.57q.23-.29.44-.56.2-.27.39-.54-.68.44-1.49.66-.81.22-1.7.22-1.01 0-1.98-.35t-1.73-1.06q-.76-.71-1.22-1.76-.47-1.04-.47-2.45 0-1.3.49-2.45.48-1.15 1.36-2.01.88-.87 2.11-1.37 1.23-.5 2.71-.5 1.5 0 2.69.48 1.2.47 2.04 1.32.85.85 1.3 2.04.45 1.19.45 2.6 0 .91-.15 1.72-.16.81-.44 1.56-.29.75-.69 1.46-.41.72-.91 1.42l-4.47 6.37q-.22.32-.68.55-.46.22-1.04.22h-3.07Zm17.3-13.66q0 1.63.84 2.49.84.86 2.4.86.81 0 1.44-.26.63-.26 1.07-.7.43-.45.65-1.06.22-.6.22-1.3 0-.8-.24-1.43-.24-.63-.69-1.06-.44-.43-1.06-.66-.61-.23-1.34-.23-.76 0-1.36.25-.61.25-1.04.69-.43.45-.66 1.06-.23.62-.23 1.35Zm-1.64 13.66 6.06-7.57q.23-.29.44-.56.2-.27.39-.54-.68.44-1.49.66-.81.22-1.7.22-1.01 0-1.98-.35-.98-.35-1.73-1.06-.76-.71-1.22-1.76-.47-1.04-.47-2.45 0-1.3.49-2.45.48-1.15 1.36-2.01.88-.87 2.11-1.37 1.23-.5 2.71-.5 1.5 0 2.69.48 1.2.47 2.04 1.32.85.85 1.3 2.04.45 1.19.45 2.6 0 .91-.15 1.72-.16.81-.44 1.56-.29.75-.69 1.46-.41.72-.91 1.42l-4.47 6.37q-.22.32-.68.55-.46.22-1.04.22h-3.07Z"/></svg>