<svg xmlns="http://www.w3.org/2000/svg" version="1.1" xmlns:xlink="http://www.w3.org/1999/xlink" xmlns:svgjs="http://svgjs.dev/svgjs" width="1440" height="560" preserveAspectRatio="none" viewBox="0 0 1440 560">
    <g mask="url(&quot;#SvgjsMask1261&quot;)" fill="none">
        <rect width="1440" height="560" x="0" y="0" fill="rgba(245, 246, 250, 1)"></rect>
        <path d="M231 512L230 895" stroke-width="8" stroke="url(&quot;#SvgjsLinearGradient1262&quot;)" stroke-linecap="round" class="Down"></path>
        <path d="M1100 346L1099 182" stroke-width="10" stroke="url(&quot;#SvgjsLinearGradient1263&quot;)" stroke-linecap="round" class="Up"></path>
        <path d="M701 159L700 -20" stroke-width="8" stroke="url(&quot;#SvgjsLinearGradient1262&quot;)" stroke-linecap="round" class="Down"></path>
        <path d="M1013 505L1012 836" stroke-width="8" stroke="url(&quot;#SvgjsLinearGradient1263&quot;)" stroke-linecap="round" class="Up"></path>
        <path d="M569 232L568 -179" stroke-width="8" stroke="url(&quot;#SvgjsLinearGradient1262&quot;)" stroke-linecap="round" class="Down"></path>
        <path d="M721 432L720 68" stroke-width="6" stroke="url(&quot;#SvgjsLinearGradient1262&quot;)" stroke-linecap="round" class="Down"></path>
        <path d="M38 15L37 158" stroke-width="10" stroke="url(&quot;#SvgjsLinearGradient1262&quot;)" stroke-linecap="round" class="Down"></path>
        <path d="M898 406L897 190" stroke-width="10" stroke="url(&quot;#SvgjsLinearGradient1262&quot;)" stroke-linecap="round" class="Down"></path>
        <path d="M1237 426L1236 671" stroke-width="8" stroke="url(&quot;#SvgjsLinearGradient1263&quot;)" stroke-linecap="round" class="Up"></path>
        <path d="M567 416L566 782" stroke-width="8" stroke="url(&quot;#SvgjsLinearGradient1263&quot;)" stroke-linecap="round" class="Up"></path>
        <path d="M1083 404L1082 153" stroke-width="6" stroke="url(&quot;#SvgjsLinearGradient1263&quot;)" stroke-linecap="round" class="Up"></path>
        <path d="M783 384L782 119" stroke-width="6" stroke="url(&quot;#SvgjsLinearGradient1262&quot;)" stroke-linecap="round" class="Down"></path>
        <path d="M528 428L527 157" stroke-width="6" stroke="url(&quot;#SvgjsLinearGradient1262&quot;)" stroke-linecap="round" class="Down"></path>
        <path d="M159 437L158 670" stroke-width="6" stroke="url(&quot;#SvgjsLinearGradient1262&quot;)" stroke-linecap="round" class="Down"></path>
        <path d="M1213 125L1212 301" stroke-width="6" stroke="url(&quot;#SvgjsLinearGradient1262&quot;)" stroke-linecap="round" class="Down"></path>
        <path d="M751 401L750 256" stroke-width="6" stroke="url(&quot;#SvgjsLinearGradient1262&quot;)" stroke-linecap="round" class="Down"></path>
        <path d="M1308 480L1307 730" stroke-width="10" stroke="url(&quot;#SvgjsLinearGradient1263&quot;)" stroke-linecap="round" class="Up"></path>
        <path d="M1111 507L1110 752" stroke-width="6" stroke="url(&quot;#SvgjsLinearGradient1262&quot;)" stroke-linecap="round" class="Down"></path>
        <path d="M551 39L550 -278" stroke-width="10" stroke="url(&quot;#SvgjsLinearGradient1263&quot;)" stroke-linecap="round" class="Up"></path>
        <path d="M686 295L685 646" stroke-width="8" stroke="url(&quot;#SvgjsLinearGradient1262&quot;)" stroke-linecap="round" class="Down"></path>
        <path d="M1234 16L1233 285" stroke-width="6" stroke="url(&quot;#SvgjsLinearGradient1262&quot;)" stroke-linecap="round" class="Down"></path>
        <path d="M164 158L163 -150" stroke-width="10" stroke="url(&quot;#SvgjsLinearGradient1263&quot;)" stroke-linecap="round" class="Up"></path>
        <path d="M165 528L164 706" stroke-width="8" stroke="url(&quot;#SvgjsLinearGradient1263&quot;)" stroke-linecap="round" class="Up"></path>
        <path d="M456 50L455 379" stroke-width="6" stroke="url(&quot;#SvgjsLinearGradient1263&quot;)" stroke-linecap="round" class="Up"></path>
        <path d="M49 76L48 -91" stroke-width="10" stroke="url(&quot;#SvgjsLinearGradient1263&quot;)" stroke-linecap="round" class="Up"></path>
        <path d="M302 508L301 765" stroke-width="6" stroke="url(&quot;#SvgjsLinearGradient1262&quot;)" stroke-linecap="round" class="Down"></path>
        <path d="M324 462L323 85" stroke-width="6" stroke="url(&quot;#SvgjsLinearGradient1263&quot;)" stroke-linecap="round" class="Up"></path>
        <path d="M1402 190L1401 -153" stroke-width="6" stroke="url(&quot;#SvgjsLinearGradient1263&quot;)" stroke-linecap="round" class="Up"></path>
        <path d="M93 504L92 125" stroke-width="8" stroke="url(&quot;#SvgjsLinearGradient1262&quot;)" stroke-linecap="round" class="Down"></path>
        <path d="M134 414L133 700" stroke-width="8" stroke="url(&quot;#SvgjsLinearGradient1262&quot;)" stroke-linecap="round" class="Down"></path>
        <path d="M881 28L880 -217" stroke-width="6" stroke="url(&quot;#SvgjsLinearGradient1262&quot;)" stroke-linecap="round" class="Down"></path>
        <path d="M777 423L776 831" stroke-width="10" stroke="url(&quot;#SvgjsLinearGradient1262&quot;)" stroke-linecap="round" class="Down"></path>
        <path d="M188 178L187 547" stroke-width="10" stroke="url(&quot;#SvgjsLinearGradient1263&quot;)" stroke-linecap="round" class="Up"></path>
        <path d="M1385 400L1384 128" stroke-width="10" stroke="url(&quot;#SvgjsLinearGradient1263&quot;)" stroke-linecap="round" class="Up"></path>
        <path d="M1045 228L1044 572" stroke-width="8" stroke="url(&quot;#SvgjsLinearGradient1263&quot;)" stroke-linecap="round" class="Up"></path>
        <path d="M262 357L261 688" stroke-width="8" stroke="url(&quot;#SvgjsLinearGradient1263&quot;)" stroke-linecap="round" class="Up"></path>
    </g>
    <defs>
        <mask id="SvgjsMask1261">
            <rect width="1440" height="560" fill="#ffffff"></rect>
        </mask>
        <linearGradient x1="0%" y1="0%" x2="0%" y2="100%" id="SvgjsLinearGradient1262">
            <stop stop-color="rgba(197, 198, 239, 0)" offset="0"></stop>
            <stop stop-color="rgba(197, 198, 239, 1)" offset="1"></stop>
        </linearGradient>
        <linearGradient x1="0%" y1="100%" x2="0%" y2="0%" id="SvgjsLinearGradient1263">
            <stop stop-color="rgba(197, 198, 239, 0)" offset="0"></stop>
            <stop stop-color="rgba(197, 198, 239, 1)" offset="1"></stop>
        </linearGradient>
    </defs>
</svg>